<svg version="1.1" id="Layer_1" xmlns="http://www.w3.org/2000/svg" xmlns:xlink="http://www.w3.org/1999/xlink" x="0px" y="0px"
	 width="100%" viewBox="0 0 686 518" enable-background="new 0 0 686 518" xml:space="preserve">
<path fill="#000000" opacity="1.000000" stroke="none" 
	d="
M1.000000,254.000000 
	C1.000000,169.333344 1.000000,85.166695 1.000000,1.000034 
	C229.666611,1.000023 458.333221,1.000023 686.999878,1.000011 
	C686.999878,173.666580 686.999878,346.333160 686.999939,518.999817 
	C458.333466,518.999878 229.666916,518.999878 1.000192,518.999939 
	C1.000000,430.833344 1.000000,342.666656 1.000000,254.000000 
M191.106308,327.432922 
	C191.288528,327.735535 191.555786,327.874329 192.433533,328.301605 
	C196.074280,332.542480 199.831284,336.689972 203.330429,341.044617 
	C209.698456,348.969604 215.716400,357.182281 222.233978,364.979370 
	C235.046600,380.307312 248.187866,395.360260 261.029602,410.664215 
	C271.968597,423.700623 282.696136,436.914825 293.483704,450.077881 
	C302.524902,461.110016 311.481354,472.211823 320.568115,483.206116 
	C322.054688,485.004791 324.021027,486.406891 326.249969,488.748383 
	C326.740723,488.822632 327.231476,488.961670 327.722260,488.961975 
	C361.481873,488.981567 395.241455,488.990417 429.001068,488.997192 
	C429.831635,488.997345 430.662170,488.962952 431.492737,488.944672 
	C431.355957,488.325439 431.219177,487.706207 430.475739,486.748291 
	C422.272430,476.890686 414.118103,466.991791 405.853088,457.186157 
	C395.991638,445.486511 385.929810,433.954651 376.144684,422.192169 
	C361.075104,404.077393 346.282135,385.731934 331.154236,367.666504 
	C319.012024,353.166504 306.517548,338.961914 294.266083,324.552490 
	C292.895111,322.940063 292.089813,320.846619 291.221802,319.325989 
	C297.941620,316.637390 304.008789,314.144806 310.123352,311.774597 
	C339.812256,300.266083 361.989319,280.114929 377.863892,252.783737 
	C390.992859,230.179657 396.811432,205.625336 396.924316,179.611160 
	C396.957947,171.856384 396.495361,164.069778 397.050262,156.354584 
	C397.727905,146.933395 401.319977,138.545547 407.940552,131.532257 
	C417.844971,121.040291 430.011719,114.441353 443.654572,110.312500 
	C461.489807,104.914841 479.665771,101.972588 498.148468,105.684326 
	C507.843109,107.631226 517.666687,110.236603 526.576233,114.383316 
	C533.771667,117.732277 540.247131,123.255684 546.030212,128.858734 
	C553.915649,136.498627 559.136719,146.025253 561.426575,157.862061 
	C588.535767,157.862061 615.644897,157.862061 643.401001,157.862061 
	C642.840942,156.696365 642.418640,155.817459 642.005371,154.065033 
	C639.640930,125.883934 630.043213,100.481750 611.895142,78.722466 
	C597.512512,61.477879 579.937866,48.008766 559.072449,39.544765 
	C547.535339,34.864780 535.515076,31.133522 523.424255,28.138758 
	C513.952759,25.792772 504.068115,24.916260 494.309448,24.000284 
	C488.112061,23.418577 481.803802,23.810047 475.555115,24.036451 
	C468.081055,24.307249 460.595398,24.637363 453.154022,25.350927 
	C438.314636,26.773891 424.065033,30.804701 410.277740,36.301540 
	C401.591248,39.764751 393.025360,43.628250 384.713989,47.911098 
	C372.794678,54.053097 362.278931,62.287716 352.878784,71.810104 
	C347.606995,77.150452 342.394104,82.704811 338.114319,88.832939 
	C331.265869,98.639076 324.815155,108.914024 321.735016,120.594063 
	C318.900879,131.341324 316.429382,142.308167 315.246490,153.333649 
	C313.947845,165.438309 314.947845,177.783386 313.763672,189.908234 
	C312.536774,202.470322 306.658997,213.397751 298.299591,222.829834 
	C295.884796,225.554489 292.797607,227.672623 290.119873,230.177032 
	C283.966675,235.931915 276.915802,240.056625 268.656616,241.849915 
	C261.429016,243.419205 254.145096,244.729309 245.970398,246.052979 
	C214.656403,246.035309 183.342392,245.994308 152.028412,246.006241 
	C117.384239,246.019455 82.740082,246.081131 47.345596,246.009216 
	C46.233753,246.308502 45.121910,246.607788 43.211147,247.300995 
	C43.132080,247.957855 42.983734,248.614716 42.983768,249.271576 
	C42.987514,327.544769 42.997303,405.817993 43.057922,484.091156 
	C43.058956,485.426758 43.681992,486.761902 43.989605,487.989288 
	C43.989605,487.989288 43.881592,488.014313 44.361111,488.753815 
	C70.724152,488.836029 97.087189,488.923248 123.450294,488.961121 
	C123.932343,488.961792 124.415230,488.373657 124.976723,487.118256 
	C124.982742,436.327515 124.974113,385.536713 125.043671,334.746063 
	C125.046730,332.514374 125.764984,330.283691 126.979904,327.997131 
	C129.738007,327.658630 132.494232,327.045166 135.254501,327.026489 
	C152.475342,326.909882 169.697113,326.926239 187.633118,326.986786 
	C188.111206,326.956451 188.589310,326.926086 189.713547,326.991852 
	C190.148712,327.018951 190.583893,327.046082 191.016510,326.990417 
	C191.016510,326.990417 190.933731,326.992645 191.106308,327.432922 
M43.242931,28.313345 
	C43.161980,54.399014 43.066605,80.484680 43.065567,106.570351 
	C43.065533,107.404213 44.033440,108.238113 44.503372,109.027115 
	C44.503372,109.027115 44.475803,109.085762 45.071331,109.789719 
	C47.895679,109.861252 50.720013,109.994614 53.544373,109.995178 
	C107.492706,110.005966 161.441040,110.009621 215.389374,109.992393 
	C226.210602,109.988937 237.031784,109.893761 248.486710,110.165993 
	C249.090179,110.425087 249.696976,110.917068 250.296616,110.908485 
	C260.022369,110.769257 268.907257,113.771194 277.491394,118.003021 
	C279.788330,119.135361 282.184845,120.065697 284.703186,121.161690 
	C286.330811,116.819908 287.794159,113.044479 289.165833,109.236038 
	C296.676331,88.382835 307.377472,69.466591 323.113434,53.659004 
	C325.994598,50.764706 325.310638,48.514698 322.197937,46.995216 
	C315.538086,43.744141 308.770935,40.689507 301.928925,37.839626 
	C285.981476,31.197079 269.132294,28.955021 251.676712,27.197317 
	C251.185074,27.125078 250.693420,26.989586 250.201782,26.989561 
	C182.594772,26.986095 114.987747,26.987482 47.380775,27.040100 
	C46.212490,27.041010 45.044682,27.665657 44.005608,28.017031 
	C44.005608,28.017031 44.023689,27.888119 43.242931,28.313345 
M588.028564,242.309448 
	C584.865601,240.905228 581.766968,239.326370 578.526794,238.131485 
	C570.668823,235.233673 562.869446,232.066544 554.818420,229.828201 
	C542.659485,226.447754 530.377991,223.413422 518.012756,220.900436 
	C508.535248,218.974335 498.854950,218.028488 489.252136,216.741272 
	C477.364441,215.147812 465.431610,213.860550 453.579559,212.041824 
	C445.513947,210.804153 437.553467,208.881607 429.267212,207.209030 
	C425.913910,235.072708 414.492462,259.941711 399.228943,283.997528 
	C405.827362,285.835846 411.553894,287.974304 417.472870,288.979858 
	C436.245880,292.169250 455.047668,295.258270 473.919250,297.780273 
	C495.228088,300.627991 516.741150,302.143463 537.471252,308.381927 
	C548.255920,311.627472 558.260742,316.394379 564.794250,326.012909 
	C571.256042,335.525879 572.415283,346.338226 570.146912,357.384735 
	C567.953003,368.069000 561.770142,376.839294 554.399475,384.440948 
	C550.065247,388.910980 544.197632,391.909241 538.966309,395.491516 
	C521.812439,407.237885 501.957550,410.030060 482.031342,411.806885 
	C474.615112,412.468231 466.958435,410.716583 459.436188,409.850220 
	C439.559113,407.560974 420.247223,402.983032 401.727203,395.278137 
	C401.127747,395.028717 400.333923,395.246490 398.797455,395.246490 
	C408.334656,406.564941 417.334473,417.249268 426.338409,427.930115 
	C433.541901,436.475250 440.768005,445.001373 447.952423,453.562531 
	C458.069977,465.618774 468.026855,477.814636 478.392609,489.652954 
	C480.056854,491.553589 483.549896,492.934631 486.097595,492.790436 
	C496.468658,492.203583 506.901093,491.519104 517.125183,489.779144 
	C535.127869,486.715393 552.492432,481.020233 568.903748,473.122467 
	C587.260498,464.288513 603.910828,452.806976 617.959717,437.738861 
	C628.014709,426.954407 636.653137,415.159149 642.584473,401.779083 
	C647.245728,391.264069 650.403381,380.154449 651.828064,368.472961 
	C653.817688,352.159790 653.578186,336.071594 650.504517,319.999634 
	C647.420837,303.875153 640.787842,289.142487 630.561157,276.456940 
	C624.319275,268.714355 616.760742,261.857361 609.016968,255.557312 
	C602.840515,250.532364 595.489563,246.951035 588.028564,242.309448 
z"/>
<path fill="#424244" opacity="1.000000" stroke="none" 
	d="
M325.765625,487.992279 
	C324.021027,486.406891 322.054688,485.004791 320.568115,483.206116 
	C311.481354,472.211823 302.524902,461.110016 293.483704,450.077881 
	C282.696136,436.914825 271.968597,423.700623 261.029602,410.664215 
	C248.187866,395.360260 235.046600,380.307312 222.233978,364.979370 
	C215.716400,357.182281 209.698456,348.969604 203.330429,341.044617 
	C199.831284,336.689972 196.074280,332.542480 192.026245,327.913635 
	C191.401154,327.334351 191.172745,327.156677 190.933731,326.992645 
	C190.933731,326.992645 191.016510,326.990417 190.850555,326.877869 
	C190.145538,326.808807 189.606476,326.852264 189.067398,326.895752 
	C188.589310,326.926086 188.111206,326.956451 186.923401,326.743683 
	C185.234192,326.344330 184.254852,326.053162 183.275131,326.051819 
	C165.135452,326.026611 146.995667,326.019379 128.856094,326.073395 
	C127.572899,326.077209 126.291222,326.585846 124.775017,327.036316 
	C124.300621,327.519348 124.060051,327.825836 123.771721,328.227539 
	C123.671783,328.541504 123.723846,328.736725 123.924118,329.381165 
	C123.948357,379.926270 123.928650,429.998718 123.843796,480.163696 
	C123.683861,480.475433 123.707230,480.685730 123.888786,481.321472 
	C123.926628,483.782104 123.924423,485.808289 123.462814,487.901398 
	C96.629463,487.983612 70.255524,487.998962 43.881592,488.014313 
	C43.881592,488.014313 43.989605,487.989288 44.016235,487.615479 
	C44.111786,485.821838 44.180702,484.401947 44.556679,482.768494 
	C45.238762,480.826477 45.940456,479.098267 45.941776,477.369568 
	C45.996525,405.709656 46.000984,334.049713 45.916058,262.389862 
	C45.913937,260.598602 44.837540,258.808594 44.183418,256.566132 
	C44.073132,253.045197 44.041599,249.976135 44.010071,246.907074 
	C45.121910,246.607788 46.233753,246.308502 48.073006,246.262360 
	C50.279919,246.672333 51.759380,246.965836 53.238934,246.966293 
	C116.004250,246.985474 178.769577,246.985321 241.534866,246.940430 
	C243.318787,246.939148 245.102325,246.427551 246.886047,246.153900 
	C254.145096,244.729309 261.429016,243.419205 268.656616,241.849915 
	C276.915802,240.056625 283.966675,235.931915 290.119873,230.177032 
	C292.797607,227.672623 295.884796,225.554489 298.299591,222.829834 
	C306.658997,213.397751 312.536774,202.470322 313.763672,189.908234 
	C314.947845,177.783386 313.947845,165.438309 315.246490,153.333649 
	C316.429382,142.308167 318.900879,131.341324 321.735016,120.594063 
	C324.815155,108.914024 331.265869,98.639076 338.114319,88.832939 
	C342.394104,82.704811 347.606995,77.150452 352.878784,71.810104 
	C362.278931,62.287716 372.794678,54.053097 384.713989,47.911098 
	C393.025360,43.628250 401.591248,39.764751 410.277740,36.301540 
	C424.065033,30.804701 438.314636,26.773891 453.154022,25.350927 
	C460.595398,24.637363 468.081055,24.307249 475.555115,24.036451 
	C481.803802,23.810047 488.112061,23.418577 494.309448,24.000284 
	C504.068115,24.916260 513.952759,25.792772 523.424255,28.138758 
	C535.515076,31.133522 547.535339,34.864780 559.072449,39.544765 
	C579.937866,48.008766 597.512512,61.477879 611.895142,78.722466 
	C630.043213,100.481750 639.640930,125.883934 641.907349,154.914490 
	C640.013428,156.178467 638.218933,156.946945 636.421326,156.954163 
	C611.301453,157.055161 586.181030,157.052185 561.060791,157.074524 
	C559.136719,146.025253 553.915649,136.498627 546.030212,128.858734 
	C540.247131,123.255684 533.771667,117.732277 526.576233,114.383316 
	C517.666687,110.236603 507.843109,107.631226 498.148468,105.684326 
	C479.665771,101.972588 461.489807,104.914841 443.654572,110.312500 
	C430.011719,114.441353 417.844971,121.040291 407.940552,131.532257 
	C401.319977,138.545547 397.727905,146.933395 397.050262,156.354584 
	C396.495361,164.069778 396.957947,171.856384 396.924316,179.611160 
	C396.811432,205.625336 390.992859,230.179657 377.863892,252.783737 
	C361.989319,280.114929 339.812256,300.266083 310.123352,311.774597 
	C304.008789,314.144806 297.941620,316.637390 291.221802,319.325989 
	C292.089813,320.846619 292.895111,322.940063 294.266083,324.552490 
	C306.517548,338.961914 319.012024,353.166504 331.154236,367.666504 
	C346.282135,385.731934 361.075104,404.077393 376.144684,422.192169 
	C385.929810,433.954651 395.991638,445.486511 405.853088,457.186157 
	C414.118103,466.991791 422.272430,476.890686 430.479309,487.225098 
	C429.331726,487.812408 428.180603,488.019196 427.029480,488.019318 
	C393.274872,488.022919 359.520233,488.005981 325.765625,487.992279 
z"/>
<path fill="#424244" opacity="1.000000" stroke="none" 
	d="
M588.344238,242.519165 
	C595.489563,246.951035 602.840515,250.532364 609.016968,255.557312 
	C616.760742,261.857361 624.319275,268.714355 630.561157,276.456940 
	C640.787842,289.142487 647.420837,303.875153 650.504517,319.999634 
	C653.578186,336.071594 653.817688,352.159790 651.828064,368.472961 
	C650.403381,380.154449 647.245728,391.264069 642.584473,401.779083 
	C636.653137,415.159149 628.014709,426.954407 617.959717,437.738861 
	C603.910828,452.806976 587.260498,464.288513 568.903748,473.122467 
	C552.492432,481.020233 535.127869,486.715393 517.125183,489.779144 
	C506.901093,491.519104 496.468658,492.203583 486.097595,492.790436 
	C483.549896,492.934631 480.056854,491.553589 478.392609,489.652954 
	C468.026855,477.814636 458.069977,465.618774 447.952423,453.562531 
	C440.768005,445.001373 433.541901,436.475250 426.338409,427.930115 
	C417.334473,417.249268 408.334656,406.564941 398.797455,395.246490 
	C400.333923,395.246490 401.127747,395.028717 401.727203,395.278137 
	C420.247223,402.983032 439.559113,407.560974 459.436188,409.850220 
	C466.958435,410.716583 474.615112,412.468231 482.031342,411.806885 
	C501.957550,410.030060 521.812439,407.237885 538.966309,395.491516 
	C544.197632,391.909241 550.065247,388.910980 554.399475,384.440948 
	C561.770142,376.839294 567.953003,368.069000 570.146912,357.384735 
	C572.415283,346.338226 571.256042,335.525879 564.794250,326.012909 
	C558.260742,316.394379 548.255920,311.627472 537.471252,308.381927 
	C516.741150,302.143463 495.228088,300.627991 473.919250,297.780273 
	C455.047668,295.258270 436.245880,292.169250 417.472870,288.979858 
	C411.553894,287.974304 405.827362,285.835846 399.228943,283.997528 
	C414.492462,259.941711 425.913910,235.072708 429.267212,207.209030 
	C437.553467,208.881607 445.513947,210.804153 453.579559,212.041824 
	C465.431610,213.860550 477.364441,215.147812 489.252136,216.741272 
	C498.854950,218.028488 508.535248,218.974335 518.012756,220.900436 
	C530.377991,223.413422 542.659485,226.447754 554.818420,229.828201 
	C562.869446,232.066544 570.668823,235.233673 578.526794,238.131485 
	C581.766968,239.326370 584.865601,240.905228 588.344238,242.519165 
z"/>
<path fill="#424243" opacity="1.000000" stroke="none" 
	d="
M252.044556,28.003448 
	C269.132294,28.955021 285.981476,31.197079 301.928925,37.839626 
	C308.770935,40.689507 315.538086,43.744141 322.197937,46.995216 
	C325.310638,48.514698 325.994598,50.764706 323.113434,53.659004 
	C307.377472,69.466591 296.676331,88.382835 289.165833,109.236038 
	C287.794159,113.044479 286.330811,116.819908 284.703186,121.161690 
	C282.184845,120.065697 279.788330,119.135361 277.491394,118.003021 
	C268.907257,113.771194 260.022369,110.769257 250.296616,110.908485 
	C249.696976,110.917068 249.090179,110.425087 247.813904,109.823288 
	C245.994461,109.325134 244.847839,109.033669 243.701202,109.033699 
	C177.292740,109.035736 110.884270,109.061920 44.475803,109.085754 
	C44.475803,109.085762 44.503372,109.027115 44.317554,108.626335 
	C44.171726,104.477974 44.211720,100.730385 44.558968,96.769531 
	C45.237888,95.327431 45.927349,94.100075 45.933060,92.869560 
	C46.006546,77.040878 46.027676,61.211403 45.907738,45.383301 
	C45.896679,43.923897 44.829330,42.472496 44.164078,40.559334 
	C44.058365,36.030231 44.041027,31.959175 44.023689,27.888119 
	C44.023689,27.888119 44.005608,28.017031 44.417591,28.016361 
	C113.901237,28.011608 182.972900,28.007528 252.044556,28.003448 
z"/>
<path fill="#DADADA" opacity="1.000000" stroke="none" 
	d="
M44.249611,482.982086 
	C44.180702,484.401947 44.111786,485.821838 44.028824,487.669495 
	C43.681992,486.761902 43.058956,485.426758 43.057922,484.091156 
	C42.997303,405.817993 42.987514,327.544769 42.983768,249.271576 
	C42.983734,248.614716 43.132080,247.957855 43.610607,247.104034 
	C44.041599,249.976135 44.073132,253.045197 44.110840,257.028625 
	C44.107399,332.128235 44.097263,406.313477 44.094868,480.498688 
	C44.094841,481.326477 44.195797,482.154297 44.249611,482.982086 
z"/>
<path fill="#B7B7B7" opacity="1.000000" stroke="none" 
	d="
M251.860626,27.600384 
	C182.972900,28.007528 113.901237,28.011608 44.353111,28.007473 
	C45.044682,27.665657 46.212490,27.041010 47.380775,27.040100 
	C114.987747,26.987482 182.594772,26.986095 250.201782,26.989561 
	C250.693420,26.989586 251.185074,27.125078 251.860626,27.600384 
z"/>
<path fill="#606060" opacity="1.000000" stroke="none" 
	d="
M44.773567,109.437737 
	C110.884270,109.061920 177.292740,109.035736 243.701202,109.033699 
	C244.847839,109.033669 245.994461,109.325134 247.497040,109.660721 
	C237.031784,109.893761 226.210602,109.988937 215.389374,109.992393 
	C161.441040,110.009621 107.492706,110.005966 53.544373,109.995178 
	C50.720013,109.994614 47.895679,109.861252 44.773567,109.437737 
z"/>
<path fill="#575757" opacity="1.000000" stroke="none" 
	d="
M246.428223,246.103439 
	C245.102325,246.427551 243.318787,246.939148 241.534866,246.940430 
	C178.769577,246.985321 116.004250,246.985474 53.238934,246.966293 
	C51.759380,246.965836 50.279919,246.672333 48.448166,246.318604 
	C82.740082,246.081131 117.384239,246.019455 152.028412,246.006241 
	C183.342392,245.994308 214.656403,246.035309 246.428223,246.103439 
z"/>
<path fill="#686868" opacity="1.000000" stroke="none" 
	d="
M123.922226,487.834503 
	C123.924423,485.808289 123.926628,483.782104 123.916710,481.118835 
	C123.904587,480.481781 123.908943,480.071167 123.908943,480.071167 
	C123.928650,429.998718 123.948357,379.926270 123.919891,329.186676 
	C123.871719,328.519531 123.819489,328.132355 123.819481,328.132355 
	C124.060051,327.825836 124.300621,327.519348 124.941467,327.257996 
	C125.611191,327.552948 125.880646,327.802734 126.150101,328.052521 
	C125.764984,330.283691 125.046730,332.514374 125.043671,334.746063 
	C124.974113,385.536713 124.982742,436.327515 124.694817,487.526489 
	C124.249352,487.901306 124.085793,487.867920 123.922226,487.834503 
z"/>
<path fill="#ACACAC" opacity="1.000000" stroke="none" 
	d="
M326.007812,488.370331 
	C359.520233,488.005981 393.274872,488.022919 427.029480,488.019318 
	C428.180603,488.019196 429.331726,487.812408 430.782654,487.394470 
	C431.219177,487.706207 431.355957,488.325439 431.492737,488.944702 
	C430.662170,488.962952 429.831635,488.997345 429.001068,488.997192 
	C395.241455,488.990417 361.481873,488.981567 327.722260,488.961975 
	C327.231476,488.961670 326.740723,488.822632 326.007812,488.370331 
z"/>
<path fill="#B7B7B7" opacity="1.000000" stroke="none" 
	d="
M561.243652,157.468292 
	C586.181030,157.052185 611.301453,157.055161 636.421326,156.954163 
	C638.218933,156.946945 640.013428,156.178467 641.902893,155.351257 
	C642.418640,155.817459 642.840942,156.696365 643.401001,157.862061 
	C615.644897,157.862061 588.535767,157.862061 561.243652,157.468292 
z"/>
<path fill="#ACACAC" opacity="1.000000" stroke="none" 
	d="
M123.462814,487.901398 
	C124.085793,487.867920 124.249352,487.901306 124.655319,487.997467 
	C124.415230,488.373657 123.932343,488.961792 123.450294,488.961121 
	C97.087189,488.923248 70.724152,488.836029 44.121353,488.384064 
	C70.255524,487.998962 96.629463,487.983612 123.462814,487.901398 
z"/>
<path fill="#DADADA" opacity="1.000000" stroke="none" 
	d="
M44.251709,96.982803 
	C44.211720,100.730385 44.171726,104.477974 44.340927,108.648773 
	C44.033440,108.238113 43.065533,107.404213 43.065567,106.570351 
	C43.066605,80.484680 43.161980,54.399014 43.633308,28.100731 
	C44.041027,31.959175 44.058365,36.030231 44.094967,41.022381 
	C44.160057,60.289917 44.205883,78.636360 44.251709,96.982803 
z"/>
<path fill="#575757" opacity="1.000000" stroke="none" 
	d="
M126.565002,328.024841 
	C125.880646,327.802734 125.611191,327.552948 125.175293,327.081451 
	C126.291222,326.585846 127.572899,326.077209 128.856094,326.073395 
	C146.995667,326.019379 165.135452,326.026611 183.275131,326.051819 
	C184.254852,326.053162 185.234192,326.344330 186.566132,326.699554 
	C169.697113,326.926239 152.475342,326.909882 135.254501,327.026489 
	C132.494232,327.045166 129.738007,327.658630 126.565002,328.024841 
z"/>
<path fill="#575757" opacity="1.000000" stroke="none" 
	d="
M189.390472,326.943787 
	C189.606476,326.852264 190.145538,326.808807 190.851837,326.919250 
	C190.583893,327.046082 190.148712,327.018951 189.390472,326.943787 
z"/>
<path fill="#575757" opacity="1.000000" stroke="none" 
	d="
M191.020020,327.212769 
	C191.172745,327.156677 191.401154,327.334351 191.763535,327.687500 
	C191.555786,327.874329 191.288528,327.735535 191.020020,327.212769 
z"/>
<path fill="#383838" opacity="1.000000" stroke="none" 
	d="
M44.556675,482.768494 
	C44.195797,482.154297 44.094841,481.326477 44.094868,480.498688 
	C44.097263,406.313477 44.107399,332.128235 44.189598,257.480530 
	C44.837540,258.808594 45.913937,260.598602 45.916058,262.389862 
	C46.000984,334.049713 45.996525,405.709656 45.941776,477.369568 
	C45.940456,479.098267 45.238762,480.826477 44.556675,482.768494 
z"/>
<path fill="#383838" opacity="1.000000" stroke="none" 
	d="
M123.771729,328.227539 
	C123.819489,328.132355 123.871719,328.519531 123.875946,328.713989 
	C123.723846,328.736725 123.671783,328.541504 123.771729,328.227539 
z"/>
<path fill="#383838" opacity="1.000000" stroke="none" 
	d="
M123.843796,480.163696 
	C123.908943,480.071167 123.904587,480.481781 123.876663,480.684418 
	C123.707230,480.685730 123.683861,480.475433 123.843796,480.163696 
z"/>
<path fill="#383838" opacity="1.000000" stroke="none" 
	d="
M44.558968,96.769531 
	C44.205883,78.636360 44.160057,60.289917 44.183342,41.480427 
	C44.829330,42.472496 45.896679,43.923897 45.907738,45.383301 
	C46.027676,61.211403 46.006546,77.040878 45.933060,92.869560 
	C45.927349,94.100075 45.237888,95.327431 44.558968,96.769531 
z"/>
</svg>